<mxfile host="app.diagrams.net" agent="Mozilla/5.0 (Windows NT 10.0; Win64; x64) AppleWebKit/537.36 (KHTML, like Gecko) Chrome/131.0.0.0 Safari/537.36 Edg/131.0.0.0" version="25.0.1">
  <diagram name="Page-1" id="1J-Znoo-mYT-X7m6rK16">
    <mxGraphModel dx="636" dy="373" grid="1" gridSize="10" guides="1" tooltips="1" connect="1" arrows="1" fold="1" page="1" pageScale="1" pageWidth="1100" pageHeight="850" math="0" shadow="0">
      <root>
        <mxCell id="0" />
        <mxCell id="1" parent="0" />
        <mxCell id="X-qlOXbMEafbG1QXRvMR-16" style="edgeStyle=orthogonalEdgeStyle;rounded=0;orthogonalLoop=1;jettySize=auto;html=1;exitX=0.5;exitY=1;exitDx=0;exitDy=0;" edge="1" parent="1" source="X-qlOXbMEafbG1QXRvMR-1" target="X-qlOXbMEafbG1QXRvMR-2">
          <mxGeometry relative="1" as="geometry" />
        </mxCell>
        <mxCell id="X-qlOXbMEafbG1QXRvMR-1" value="N1" style="ellipse;whiteSpace=wrap;html=1;aspect=fixed;" vertex="1" parent="1">
          <mxGeometry x="370" y="10" width="40" height="40" as="geometry" />
        </mxCell>
        <mxCell id="X-qlOXbMEafbG1QXRvMR-17" style="edgeStyle=orthogonalEdgeStyle;rounded=0;orthogonalLoop=1;jettySize=auto;html=1;" edge="1" parent="1" source="X-qlOXbMEafbG1QXRvMR-2" target="X-qlOXbMEafbG1QXRvMR-3">
          <mxGeometry relative="1" as="geometry" />
        </mxCell>
        <mxCell id="X-qlOXbMEafbG1QXRvMR-2" value="N2" style="ellipse;whiteSpace=wrap;html=1;aspect=fixed;" vertex="1" parent="1">
          <mxGeometry x="370" y="70" width="40" height="40" as="geometry" />
        </mxCell>
        <mxCell id="X-qlOXbMEafbG1QXRvMR-18" style="edgeStyle=orthogonalEdgeStyle;rounded=0;orthogonalLoop=1;jettySize=auto;html=1;exitX=0.5;exitY=1;exitDx=0;exitDy=0;" edge="1" parent="1" source="X-qlOXbMEafbG1QXRvMR-3" target="X-qlOXbMEafbG1QXRvMR-4">
          <mxGeometry relative="1" as="geometry" />
        </mxCell>
        <mxCell id="X-qlOXbMEafbG1QXRvMR-3" value="N3" style="ellipse;whiteSpace=wrap;html=1;aspect=fixed;" vertex="1" parent="1">
          <mxGeometry x="370" y="130" width="40" height="40" as="geometry" />
        </mxCell>
        <mxCell id="X-qlOXbMEafbG1QXRvMR-19" style="edgeStyle=orthogonalEdgeStyle;rounded=0;orthogonalLoop=1;jettySize=auto;html=1;" edge="1" parent="1" source="X-qlOXbMEafbG1QXRvMR-4" target="X-qlOXbMEafbG1QXRvMR-8">
          <mxGeometry relative="1" as="geometry" />
        </mxCell>
        <mxCell id="X-qlOXbMEafbG1QXRvMR-4" value="N4" style="ellipse;whiteSpace=wrap;html=1;aspect=fixed;" vertex="1" parent="1">
          <mxGeometry x="370" y="190" width="40" height="40" as="geometry" />
        </mxCell>
        <mxCell id="X-qlOXbMEafbG1QXRvMR-15" style="edgeStyle=orthogonalEdgeStyle;rounded=0;orthogonalLoop=1;jettySize=auto;html=1;exitX=0.5;exitY=1;exitDx=0;exitDy=0;entryX=0.5;entryY=0;entryDx=0;entryDy=0;" edge="1" parent="1" source="X-qlOXbMEafbG1QXRvMR-5" target="X-qlOXbMEafbG1QXRvMR-13">
          <mxGeometry relative="1" as="geometry">
            <Array as="points">
              <mxPoint x="470" y="420" />
              <mxPoint x="390" y="420" />
            </Array>
          </mxGeometry>
        </mxCell>
        <mxCell id="X-qlOXbMEafbG1QXRvMR-5" value="N5" style="ellipse;whiteSpace=wrap;html=1;aspect=fixed;" vertex="1" parent="1">
          <mxGeometry x="450" y="370" width="40" height="40" as="geometry" />
        </mxCell>
        <mxCell id="X-qlOXbMEafbG1QXRvMR-9" style="edgeStyle=orthogonalEdgeStyle;rounded=0;orthogonalLoop=1;jettySize=auto;html=1;exitX=1;exitY=0.5;exitDx=0;exitDy=0;" edge="1" parent="1" source="X-qlOXbMEafbG1QXRvMR-8" target="X-qlOXbMEafbG1QXRvMR-5">
          <mxGeometry relative="1" as="geometry" />
        </mxCell>
        <mxCell id="X-qlOXbMEafbG1QXRvMR-20" style="edgeStyle=orthogonalEdgeStyle;rounded=0;orthogonalLoop=1;jettySize=auto;html=1;" edge="1" parent="1" source="X-qlOXbMEafbG1QXRvMR-8" target="X-qlOXbMEafbG1QXRvMR-10">
          <mxGeometry relative="1" as="geometry" />
        </mxCell>
        <mxCell id="X-qlOXbMEafbG1QXRvMR-8" value="N6" style="ellipse;whiteSpace=wrap;html=1;aspect=fixed;" vertex="1" parent="1">
          <mxGeometry x="370" y="250" width="40" height="40" as="geometry" />
        </mxCell>
        <mxCell id="X-qlOXbMEafbG1QXRvMR-21" style="edgeStyle=orthogonalEdgeStyle;rounded=0;orthogonalLoop=1;jettySize=auto;html=1;" edge="1" parent="1" source="X-qlOXbMEafbG1QXRvMR-10" target="X-qlOXbMEafbG1QXRvMR-11">
          <mxGeometry relative="1" as="geometry" />
        </mxCell>
        <mxCell id="X-qlOXbMEafbG1QXRvMR-10" value="N7" style="ellipse;whiteSpace=wrap;html=1;aspect=fixed;" vertex="1" parent="1">
          <mxGeometry x="370" y="310" width="40" height="40" as="geometry" />
        </mxCell>
        <mxCell id="X-qlOXbMEafbG1QXRvMR-12" style="edgeStyle=orthogonalEdgeStyle;rounded=0;orthogonalLoop=1;jettySize=auto;html=1;entryX=0;entryY=0.5;entryDx=0;entryDy=0;" edge="1" parent="1" source="X-qlOXbMEafbG1QXRvMR-11" target="X-qlOXbMEafbG1QXRvMR-5">
          <mxGeometry relative="1" as="geometry" />
        </mxCell>
        <mxCell id="X-qlOXbMEafbG1QXRvMR-14" style="edgeStyle=orthogonalEdgeStyle;rounded=0;orthogonalLoop=1;jettySize=auto;html=1;exitX=0.5;exitY=1;exitDx=0;exitDy=0;entryX=0.5;entryY=0;entryDx=0;entryDy=0;" edge="1" parent="1" source="X-qlOXbMEafbG1QXRvMR-11" target="X-qlOXbMEafbG1QXRvMR-13">
          <mxGeometry relative="1" as="geometry" />
        </mxCell>
        <mxCell id="X-qlOXbMEafbG1QXRvMR-11" value="N8" style="ellipse;whiteSpace=wrap;html=1;aspect=fixed;" vertex="1" parent="1">
          <mxGeometry x="370" y="370" width="40" height="40" as="geometry" />
        </mxCell>
        <mxCell id="X-qlOXbMEafbG1QXRvMR-39" style="edgeStyle=orthogonalEdgeStyle;rounded=0;orthogonalLoop=1;jettySize=auto;html=1;" edge="1" parent="1" source="X-qlOXbMEafbG1QXRvMR-13" target="X-qlOXbMEafbG1QXRvMR-22">
          <mxGeometry relative="1" as="geometry" />
        </mxCell>
        <mxCell id="X-qlOXbMEafbG1QXRvMR-13" value="N9" style="ellipse;whiteSpace=wrap;html=1;aspect=fixed;" vertex="1" parent="1">
          <mxGeometry x="370" y="430" width="40" height="40" as="geometry" />
        </mxCell>
        <mxCell id="X-qlOXbMEafbG1QXRvMR-40" style="edgeStyle=orthogonalEdgeStyle;rounded=0;orthogonalLoop=1;jettySize=auto;html=1;" edge="1" parent="1" source="X-qlOXbMEafbG1QXRvMR-22" target="X-qlOXbMEafbG1QXRvMR-23">
          <mxGeometry relative="1" as="geometry" />
        </mxCell>
        <mxCell id="X-qlOXbMEafbG1QXRvMR-22" value="N10" style="ellipse;whiteSpace=wrap;html=1;aspect=fixed;" vertex="1" parent="1">
          <mxGeometry x="370" y="490" width="40" height="40" as="geometry" />
        </mxCell>
        <mxCell id="X-qlOXbMEafbG1QXRvMR-41" style="edgeStyle=orthogonalEdgeStyle;rounded=0;orthogonalLoop=1;jettySize=auto;html=1;" edge="1" parent="1" source="X-qlOXbMEafbG1QXRvMR-23" target="X-qlOXbMEafbG1QXRvMR-24">
          <mxGeometry relative="1" as="geometry" />
        </mxCell>
        <mxCell id="X-qlOXbMEafbG1QXRvMR-23" value="N11" style="ellipse;whiteSpace=wrap;html=1;aspect=fixed;" vertex="1" parent="1">
          <mxGeometry x="370" y="550" width="40" height="40" as="geometry" />
        </mxCell>
        <mxCell id="X-qlOXbMEafbG1QXRvMR-42" style="edgeStyle=orthogonalEdgeStyle;rounded=0;orthogonalLoop=1;jettySize=auto;html=1;" edge="1" parent="1" source="X-qlOXbMEafbG1QXRvMR-24" target="X-qlOXbMEafbG1QXRvMR-25">
          <mxGeometry relative="1" as="geometry" />
        </mxCell>
        <mxCell id="X-qlOXbMEafbG1QXRvMR-24" value="N12" style="ellipse;whiteSpace=wrap;html=1;aspect=fixed;" vertex="1" parent="1">
          <mxGeometry x="370" y="610" width="40" height="40" as="geometry" />
        </mxCell>
        <mxCell id="X-qlOXbMEafbG1QXRvMR-43" style="edgeStyle=orthogonalEdgeStyle;rounded=0;orthogonalLoop=1;jettySize=auto;html=1;" edge="1" parent="1" source="X-qlOXbMEafbG1QXRvMR-25" target="X-qlOXbMEafbG1QXRvMR-27">
          <mxGeometry relative="1" as="geometry" />
        </mxCell>
        <mxCell id="X-qlOXbMEafbG1QXRvMR-25" value="N13" style="ellipse;whiteSpace=wrap;html=1;aspect=fixed;" vertex="1" parent="1">
          <mxGeometry x="370" y="670" width="40" height="40" as="geometry" />
        </mxCell>
        <mxCell id="X-qlOXbMEafbG1QXRvMR-37" style="edgeStyle=orthogonalEdgeStyle;rounded=0;orthogonalLoop=1;jettySize=auto;html=1;" edge="1" parent="1" source="X-qlOXbMEafbG1QXRvMR-26" target="X-qlOXbMEafbG1QXRvMR-30">
          <mxGeometry relative="1" as="geometry">
            <Array as="points">
              <mxPoint x="460" y="990" />
            </Array>
          </mxGeometry>
        </mxCell>
        <mxCell id="X-qlOXbMEafbG1QXRvMR-26" value="N14" style="ellipse;whiteSpace=wrap;html=1;aspect=fixed;" vertex="1" parent="1">
          <mxGeometry x="440" y="910" width="40" height="40" as="geometry" />
        </mxCell>
        <mxCell id="X-qlOXbMEafbG1QXRvMR-44" style="edgeStyle=orthogonalEdgeStyle;rounded=0;orthogonalLoop=1;jettySize=auto;html=1;" edge="1" parent="1" source="X-qlOXbMEafbG1QXRvMR-27" target="X-qlOXbMEafbG1QXRvMR-26">
          <mxGeometry relative="1" as="geometry" />
        </mxCell>
        <mxCell id="X-qlOXbMEafbG1QXRvMR-46" style="edgeStyle=orthogonalEdgeStyle;rounded=0;orthogonalLoop=1;jettySize=auto;html=1;" edge="1" parent="1" source="X-qlOXbMEafbG1QXRvMR-27" target="X-qlOXbMEafbG1QXRvMR-28">
          <mxGeometry relative="1" as="geometry" />
        </mxCell>
        <mxCell id="X-qlOXbMEafbG1QXRvMR-27" value="N15" style="ellipse;whiteSpace=wrap;html=1;aspect=fixed;" vertex="1" parent="1">
          <mxGeometry x="370" y="730" width="40" height="40" as="geometry" />
        </mxCell>
        <mxCell id="X-qlOXbMEafbG1QXRvMR-45" style="edgeStyle=orthogonalEdgeStyle;rounded=0;orthogonalLoop=1;jettySize=auto;html=1;" edge="1" parent="1" source="X-qlOXbMEafbG1QXRvMR-28" target="X-qlOXbMEafbG1QXRvMR-26">
          <mxGeometry relative="1" as="geometry" />
        </mxCell>
        <mxCell id="X-qlOXbMEafbG1QXRvMR-47" style="edgeStyle=orthogonalEdgeStyle;rounded=0;orthogonalLoop=1;jettySize=auto;html=1;" edge="1" parent="1" source="X-qlOXbMEafbG1QXRvMR-28" target="X-qlOXbMEafbG1QXRvMR-29">
          <mxGeometry relative="1" as="geometry" />
        </mxCell>
        <mxCell id="X-qlOXbMEafbG1QXRvMR-28" value="N16" style="ellipse;whiteSpace=wrap;html=1;aspect=fixed;" vertex="1" parent="1">
          <mxGeometry x="370" y="790" width="40" height="40" as="geometry" />
        </mxCell>
        <mxCell id="X-qlOXbMEafbG1QXRvMR-33" style="edgeStyle=orthogonalEdgeStyle;rounded=0;orthogonalLoop=1;jettySize=auto;html=1;" edge="1" parent="1" source="X-qlOXbMEafbG1QXRvMR-29" target="X-qlOXbMEafbG1QXRvMR-31">
          <mxGeometry relative="1" as="geometry" />
        </mxCell>
        <mxCell id="X-qlOXbMEafbG1QXRvMR-34" style="edgeStyle=orthogonalEdgeStyle;rounded=0;orthogonalLoop=1;jettySize=auto;html=1;" edge="1" parent="1" source="X-qlOXbMEafbG1QXRvMR-29" target="X-qlOXbMEafbG1QXRvMR-30">
          <mxGeometry relative="1" as="geometry">
            <Array as="points">
              <mxPoint x="390" y="930" />
              <mxPoint x="390" y="930" />
            </Array>
          </mxGeometry>
        </mxCell>
        <mxCell id="X-qlOXbMEafbG1QXRvMR-35" style="edgeStyle=orthogonalEdgeStyle;rounded=0;orthogonalLoop=1;jettySize=auto;html=1;" edge="1" parent="1" source="X-qlOXbMEafbG1QXRvMR-29" target="X-qlOXbMEafbG1QXRvMR-26">
          <mxGeometry relative="1" as="geometry" />
        </mxCell>
        <mxCell id="X-qlOXbMEafbG1QXRvMR-29" value="N17" style="ellipse;whiteSpace=wrap;html=1;aspect=fixed;" vertex="1" parent="1">
          <mxGeometry x="370" y="850" width="40" height="40" as="geometry" />
        </mxCell>
        <mxCell id="X-qlOXbMEafbG1QXRvMR-30" value="N20" style="ellipse;whiteSpace=wrap;html=1;aspect=fixed;" vertex="1" parent="1">
          <mxGeometry x="370" y="970" width="40" height="40" as="geometry" />
        </mxCell>
        <mxCell id="X-qlOXbMEafbG1QXRvMR-38" style="edgeStyle=orthogonalEdgeStyle;rounded=0;orthogonalLoop=1;jettySize=auto;html=1;" edge="1" parent="1" source="X-qlOXbMEafbG1QXRvMR-31" target="X-qlOXbMEafbG1QXRvMR-32">
          <mxGeometry relative="1" as="geometry" />
        </mxCell>
        <mxCell id="X-qlOXbMEafbG1QXRvMR-31" value="N18" style="ellipse;whiteSpace=wrap;html=1;aspect=fixed;" vertex="1" parent="1">
          <mxGeometry x="290" y="850" width="40" height="40" as="geometry" />
        </mxCell>
        <mxCell id="X-qlOXbMEafbG1QXRvMR-36" style="edgeStyle=orthogonalEdgeStyle;rounded=0;orthogonalLoop=1;jettySize=auto;html=1;" edge="1" parent="1" source="X-qlOXbMEafbG1QXRvMR-32" target="X-qlOXbMEafbG1QXRvMR-26">
          <mxGeometry relative="1" as="geometry">
            <Array as="points">
              <mxPoint x="410" y="930" />
              <mxPoint x="410" y="930" />
            </Array>
          </mxGeometry>
        </mxCell>
        <mxCell id="X-qlOXbMEafbG1QXRvMR-52" style="edgeStyle=orthogonalEdgeStyle;rounded=0;orthogonalLoop=1;jettySize=auto;html=1;entryX=0.5;entryY=0;entryDx=0;entryDy=0;" edge="1" parent="1" source="X-qlOXbMEafbG1QXRvMR-32" target="X-qlOXbMEafbG1QXRvMR-30">
          <mxGeometry relative="1" as="geometry">
            <Array as="points">
              <mxPoint x="390" y="930" />
            </Array>
          </mxGeometry>
        </mxCell>
        <mxCell id="X-qlOXbMEafbG1QXRvMR-32" value="N19" style="ellipse;whiteSpace=wrap;html=1;aspect=fixed;" vertex="1" parent="1">
          <mxGeometry x="290" y="910" width="40" height="40" as="geometry" />
        </mxCell>
        <mxCell id="X-qlOXbMEafbG1QXRvMR-48" value="Catch" style="text;html=1;align=center;verticalAlign=middle;resizable=0;points=[];autosize=1;strokeColor=none;fillColor=none;" vertex="1" parent="1">
          <mxGeometry x="480" y="915" width="50" height="30" as="geometry" />
        </mxCell>
        <mxCell id="X-qlOXbMEafbG1QXRvMR-49" value="Try" style="text;html=1;align=center;verticalAlign=middle;resizable=0;points=[];autosize=1;strokeColor=none;fillColor=none;" vertex="1" parent="1">
          <mxGeometry x="410" y="675" width="40" height="30" as="geometry" />
        </mxCell>
        <mxCell id="X-qlOXbMEafbG1QXRvMR-50" value="Catch" style="text;html=1;align=center;verticalAlign=middle;resizable=0;points=[];autosize=1;strokeColor=none;fillColor=none;" vertex="1" parent="1">
          <mxGeometry x="490" y="375" width="50" height="30" as="geometry" />
        </mxCell>
        <mxCell id="X-qlOXbMEafbG1QXRvMR-51" value="Try" style="text;html=1;align=center;verticalAlign=middle;resizable=0;points=[];autosize=1;strokeColor=none;fillColor=none;" vertex="1" parent="1">
          <mxGeometry x="410" y="195" width="40" height="30" as="geometry" />
        </mxCell>
      </root>
    </mxGraphModel>
  </diagram>
</mxfile>
